<svg width="85" height="65" viewBox="0 0 85 65" fill="none" xmlns="http://www.w3.org/2000/svg">
<path d="M61.1083 46.1999H43.65C43.0974 46.1999 42.5675 45.9804 42.1768 45.5897C41.7861 45.199 41.5667 44.6691 41.5667 44.1166C41.5667 43.564 41.7861 43.0341 42.1768 42.6434C42.5675 42.2527 43.0974 42.0332 43.65 42.0332H61.1083C61.6609 42.0332 62.1908 42.2527 62.5815 42.6434C62.9722 43.0341 63.1917 43.564 63.1917 44.1166C63.1917 44.6691 62.9722 45.199 62.5815 45.5897C62.1908 45.9804 61.6609 46.1999 61.1083 46.1999Z" fill="#FF4343"/>
<path d="M72.8583 44.9082C72.6117 44.9667 72.3548 44.9667 72.1083 44.9082C71.8515 44.8157 71.6159 44.6726 71.4153 44.4874C71.2148 44.3022 71.0535 44.0787 70.9408 43.8301C70.8281 43.5815 70.7665 43.3128 70.7595 43.0399C70.7524 42.7671 70.8002 42.4956 70.8999 42.2415L80.8166 15.7415C81.0128 15.2299 81.4028 14.8162 81.9019 14.59C82.401 14.3638 82.9692 14.3434 83.4833 14.5332C83.9989 14.7386 84.4159 15.1341 84.6485 15.638C84.8811 16.1419 84.9114 16.7159 84.7333 17.2415L74.8166 43.6165C74.6486 43.9971 74.3746 44.3213 74.0274 44.5503C73.6801 44.7794 73.2742 44.9036 72.8583 44.9082V44.9082Z" fill="#FF4343"/>
<path d="M30.3166 45.7C29.8819 45.7031 29.4576 45.5674 29.1053 45.3126C28.7531 45.0578 28.4914 44.6972 28.3583 44.2833L15.275 4.53334H2.77498C2.22245 4.53334 1.69255 4.31384 1.30184 3.92314C0.911144 3.53244 0.69165 3.00254 0.69165 2.45C0.702317 1.90081 0.925236 1.37708 1.31365 0.988667C1.70206 0.600254 2.22579 0.377336 2.77498 0.366669H16.775C17.2067 0.375875 17.6253 0.516375 17.9752 0.769459C18.325 1.02254 18.5895 1.3762 18.7333 1.78334L32.4417 42.95C32.533 43.207 32.5719 43.4796 32.5561 43.7518C32.5403 44.0241 32.4701 44.2904 32.3497 44.5351C32.2294 44.7797 32.0612 44.9978 31.8551 45.1764C31.649 45.355 31.4093 45.4906 31.15 45.575C30.8853 45.6794 30.6003 45.7221 30.3166 45.7V45.7Z" fill="#FF4343"/>
<path d="M36.7333 64.45C34.261 64.45 31.8443 63.7169 29.7887 62.3434C27.733 60.9698 26.1309 59.0176 25.1848 56.7335C24.2387 54.4495 23.9912 51.9361 24.4735 49.5114C24.9558 47.0866 26.1463 44.8593 27.8944 43.1112C29.6426 41.363 31.8699 40.1725 34.2947 39.6902C36.7194 39.2079 39.2327 39.4554 41.5168 40.4015C43.8009 41.3476 45.7531 42.9497 47.1267 45.0054C48.5002 47.061 49.2333 49.4777 49.2333 51.95C49.2333 55.2652 47.9163 58.4446 45.5721 60.7888C43.2279 63.133 40.0485 64.45 36.7333 64.45V64.45ZM36.7333 43.6167C35.0851 43.6167 33.4739 44.1054 32.1035 45.0211C30.7331 45.9368 29.665 47.2382 29.0343 48.761C28.4036 50.2837 28.2385 51.9592 28.5601 53.5757C28.8816 55.1923 29.6753 56.6771 30.8407 57.8426C32.0062 59.008 33.491 59.8017 35.1075 60.1232C36.724 60.4448 38.3996 60.2797 39.9223 59.649C41.445 59.0183 42.7465 57.9502 43.6622 56.5797C44.5779 55.2093 45.0666 53.5982 45.0666 51.95C45.0666 49.7399 44.1886 47.6202 42.6258 46.0574C41.063 44.4946 38.9434 43.6167 36.7333 43.6167Z" fill="#FF4343"/>
<path d="M68.025 64.45C65.5528 64.45 63.136 63.7169 61.0804 62.3434C59.0248 60.9698 57.4226 59.0176 56.4765 56.7335C55.5304 54.4495 55.2829 51.9361 55.7652 49.5114C56.2475 47.0866 57.438 44.8593 59.1862 43.1112C60.9344 41.363 63.1616 40.1725 65.5864 39.6902C68.0112 39.2079 70.5245 39.4554 72.8086 40.4015C75.0926 41.3476 77.0449 42.9497 78.4184 45.0054C79.7919 47.061 80.525 49.4777 80.525 51.95C80.525 55.2652 79.2081 58.4446 76.8639 60.7888C74.5197 63.133 71.3402 64.45 68.025 64.45V64.45ZM68.025 43.6167C66.3769 43.6167 64.7657 44.1054 63.3953 45.0211C62.0249 45.9368 60.9568 47.2382 60.326 48.761C59.6953 50.2837 59.5303 51.9592 59.8518 53.5757C60.1734 55.1923 60.967 56.6771 62.1325 57.8426C63.2979 59.008 64.7828 59.8017 66.3993 60.1232C68.0158 60.4448 69.6913 60.2797 71.2141 59.649C72.7368 59.0183 74.0383 57.9502 74.9539 56.5797C75.8696 55.2093 76.3584 53.5982 76.3584 51.95C76.3584 49.7399 75.4804 47.6202 73.9176 46.0574C72.3548 44.4946 70.2352 43.6167 68.025 43.6167Z" fill="#FF4343"/>
</svg>
