<svg width="69" height="90" viewBox="0 0 69 90" fill="none" xmlns="http://www.w3.org/2000/svg">
<path d="M51.4917 63.2833C51.1469 63.2872 50.8066 63.2056 50.5011 63.0456C50.1957 62.8856 49.9348 62.6523 49.7417 62.3666C49.5878 62.1351 49.4818 61.8752 49.4299 61.6021C49.3779 61.3291 49.3812 61.0483 49.4394 60.7765C49.4977 60.5047 49.6097 60.2474 49.769 60.0195C49.9282 59.7917 50.1315 59.598 50.3667 59.45C55.7266 56.0025 59.826 50.912 62.0513 44.9404C64.2767 38.9687 64.5084 32.4369 62.7118 26.3226C60.9152 20.2082 57.1869 14.84 52.0848 11.0214C46.9827 7.20277 40.7812 5.13904 34.4084 5.13904C28.0355 5.13904 21.834 7.20277 16.7319 11.0214C11.6298 14.84 7.90151 20.2082 6.10491 26.3226C4.30831 32.4369 4.54003 38.9687 6.76542 44.9404C8.9908 50.912 13.0902 56.0025 18.45 59.45C18.6957 59.5901 18.9103 59.7788 19.0807 60.0046C19.2511 60.2304 19.3737 60.4886 19.4411 60.7633C19.5085 61.038 19.5192 61.3236 19.4727 61.6026C19.4261 61.8816 19.3232 62.1482 19.1702 62.3861C19.0173 62.6241 18.8174 62.8284 18.583 62.9866C18.3485 63.1448 18.0842 63.2536 17.8063 63.3064C17.5284 63.3591 17.2426 63.3547 16.9665 63.2934C16.6903 63.2322 16.4296 63.1153 16.2 62.9499C10.0822 59.0162 5.40286 53.207 2.86229 46.3917C0.321723 39.5765 0.0565906 32.1218 2.10657 25.1433C4.15655 18.1647 8.4114 12.0378 14.2343 7.67935C20.0572 3.32092 27.135 0.965439 34.4084 0.965439C41.6818 0.965439 48.7596 3.32092 54.5825 7.67935C60.4054 12.0378 64.6602 18.1647 66.7102 25.1433C68.7602 32.1218 68.495 39.5765 65.9545 46.3917C63.4139 53.207 58.7345 59.0162 52.6167 62.9499C52.2846 63.1734 51.892 63.2898 51.4917 63.2833V63.2833Z" fill="#FF4343"/>
<path d="M51.4917 79.7417H17.325C16.7758 79.7311 16.2521 79.5081 15.8637 79.1197C15.4753 78.7313 15.2524 78.2076 15.2417 77.6584V61.2C15.2524 60.6509 15.4753 60.1271 15.8637 59.7387C16.2521 59.3503 16.7758 59.1274 17.325 59.1167C17.8776 59.1167 18.4075 59.3362 18.7982 59.7269C19.1889 60.1176 19.4084 60.6475 19.4084 61.2V75.5751H49.4084V61.2C49.4084 60.6475 49.6279 60.1176 50.0186 59.7269C50.4093 59.3362 50.9392 59.1167 51.4917 59.1167C52.0409 59.1274 52.5646 59.3503 52.953 59.7387C53.3414 60.1271 53.5644 60.6509 53.575 61.2V77.6584C53.5644 78.2076 53.3414 78.7313 52.953 79.1197C52.5646 79.5081 52.0409 79.7311 51.4917 79.7417V79.7417Z" fill="#FF4343"/>
<path d="M23.4918 89.9084C22.9392 89.9084 22.4093 89.6889 22.0186 89.2982C21.6279 88.9075 21.4084 88.3776 21.4084 87.825V80.4917C21.4191 79.9425 21.642 79.4188 22.0304 79.0304C22.4189 78.642 22.9426 78.4191 23.4918 78.4084C24.0443 78.4084 24.5742 78.6279 24.9649 79.0186C25.3556 79.4093 25.5751 79.9392 25.5751 80.4917V87.825C25.5751 88.3776 25.3556 88.9075 24.9649 89.2982C24.5742 89.6889 24.0443 89.9084 23.4918 89.9084Z" fill="#FF4343"/>
<path d="M45.3251 89.9084C44.7726 89.9084 44.2427 89.6889 43.852 89.2982C43.4613 88.9075 43.2418 88.3776 43.2418 87.825V80.4917C43.2418 79.9392 43.4613 79.4093 43.852 79.0186C44.2427 78.6279 44.7726 78.4084 45.3251 78.4084C45.8743 78.4191 46.398 78.642 46.7864 79.0304C47.1748 79.4188 47.3978 79.9425 47.4084 80.4917V87.825C47.4084 88.3776 47.1889 88.9075 46.7982 89.2982C46.4075 89.6889 45.8776 89.9084 45.3251 89.9084Z" fill="#FF4343"/>
<path d="M34.4083 79.7416C33.8558 79.7416 33.3259 79.5221 32.9352 79.1314C32.5445 78.7407 32.325 78.2108 32.325 77.6582V44.3249C32.325 43.7724 32.5445 43.2425 32.9352 42.8518C33.3259 42.4611 33.8558 42.2416 34.4083 42.2416C34.9609 42.2416 35.4908 42.4611 35.8815 42.8518C36.2722 43.2425 36.4917 43.7724 36.4917 44.3249V77.6582C36.4917 78.2108 36.2722 78.7407 35.8815 79.1314C35.4908 79.5221 34.9609 79.7416 34.4083 79.7416Z" fill="#FF4343"/>
</svg>
