<svg width="85" height="77" viewBox="0 0 85 77" fill="none" xmlns="http://www.w3.org/2000/svg">
<path d="M69.2681 60.6167H15.6848C11.5519 60.6167 7.58817 58.9749 4.66573 56.0524C1.74329 53.13 0.101475 49.1663 0.101475 45.0333V15.8667C0.0794684 13.8043 0.465993 11.758 1.23876 9.8457C2.01152 7.93343 3.15523 6.19308 4.60392 4.72502C6.05262 3.25696 7.77763 2.09024 9.67946 1.29215C11.5813 0.49406 13.6223 0.0803948 15.6848 0.0750122H69.2681C73.3977 0.0860098 77.355 1.73135 80.2751 4.65141C83.1951 7.57148 84.8405 11.5288 84.8515 15.6583V45.0333C84.8515 47.0798 84.4484 49.1062 83.6653 50.9968C82.8821 52.8875 81.7343 54.6054 80.2872 56.0524C78.8402 57.4995 77.1223 58.6473 75.2316 59.4305C73.341 60.2136 71.3146 60.6167 69.2681 60.6167V60.6167ZM15.6848 4.24168C12.6569 4.24168 9.75305 5.4445 7.61201 7.58554C5.47097 9.72659 4.26814 12.6305 4.26814 15.6583V45.0333C4.26814 48.0612 5.47097 50.9651 7.61201 53.1062C9.75305 55.2472 12.6569 56.45 15.6848 56.45H69.2681C72.296 56.45 75.1999 55.2472 77.3409 53.1062C79.482 50.9651 80.6848 48.0612 80.6848 45.0333V15.8667C80.7125 14.35 80.4376 12.843 79.8763 11.4337C79.315 10.0244 78.4784 8.74116 77.4155 7.65886C76.3526 6.57656 75.0847 5.71694 73.6858 5.13021C72.2869 4.54349 70.7851 4.24143 69.2681 4.24168H15.6848Z" fill="#FF4343"/>
<path d="M82.7673 44.7834H2.18398C1.63479 44.7727 1.11106 44.5498 0.722644 44.1614C0.334232 43.7729 0.111314 43.2492 0.100647 42.7C0.100647 42.1475 0.32014 41.6176 0.710841 41.2269C1.10154 40.8362 1.63145 40.6167 2.18398 40.6167H82.7673C83.3198 40.6167 83.8498 40.8362 84.2405 41.2269C84.6312 41.6176 84.8506 42.1475 84.8506 42.7C84.8506 43.2526 84.6312 43.7825 84.2405 44.1732C83.8498 44.5639 83.3198 44.7834 82.7673 44.7834Z" fill="#FF4343"/>
<path d="M42.4207 76.7417C41.8681 76.7417 41.3382 76.5222 40.9475 76.1315C40.5568 75.7408 40.3373 75.2109 40.3373 74.6584V58.5334C40.3373 57.9809 40.5568 57.451 40.9475 57.0603C41.3382 56.6695 41.8681 56.4501 42.4207 56.4501C42.9732 56.4501 43.5031 56.6695 43.8938 57.0603C44.2845 57.451 44.504 57.9809 44.504 58.5334V74.6584C44.504 75.2109 44.2845 75.7408 43.8938 76.1315C43.5031 76.5222 42.9732 76.7417 42.4207 76.7417Z" fill="#FF4343"/>
<path d="M66.4936 76.7418H18.1603C17.6078 76.7418 17.0779 76.5223 16.6872 76.1316C16.2965 75.7409 16.077 75.211 16.077 74.6584C16.077 74.1059 16.2965 73.576 16.6872 73.1853C17.0779 72.7946 17.6078 72.5751 18.1603 72.5751H66.4936C67.0462 72.5751 67.5761 72.7946 67.9668 73.1853C68.3575 73.576 68.577 74.1059 68.577 74.6584C68.577 75.211 68.3575 75.7409 67.9668 76.1316C67.5761 76.5223 67.0462 76.7418 66.4936 76.7418Z" fill="#FF4343"/>
</svg>
